<?xml version="1.0" standalone="no"?>
<!DOCTYPE svg PUBLIC "-//W3C//DTD SVG 20010904//EN"
 "http://www.w3.org/TR/2001/REC-SVG-20010904/DTD/svg10.dtd">
<svg version="1.0" xmlns="http://www.w3.org/2000/svg"
 width="225.000000pt" height="225.000000pt" viewBox="0 0 225.000000 225.000000"
 preserveAspectRatio="xMidYMid meet">

<g transform="translate(0.000000,225.000000) scale(0.100000,-0.100000)"
fill="#FFF" stroke="none">
<path d="M1040 2043 c0 -5 9 -21 20 -38 11 -16 20 -43 20 -58 l0 -28 -37 26
-38 25 -3 -56 c-2 -31 -1 -58 2 -61 3 -3 18 4 34 16 17 12 33 21 36 21 3 0 6
-17 6 -38 0 -32 -4 -39 -29 -49 -22 -8 -32 -20 -40 -50 -21 -77 22 -133 101
-133 45 0 75 23 89 68 15 51 -7 104 -50 123 -27 12 -31 19 -31 52 l0 37 40
-20 c21 -11 42 -20 45 -20 5 0 -5 112 -11 119 -2 2 -19 -8 -39 -23 l-35 -27 0
28 c0 15 9 43 20 61 l20 32 -60 0 c-33 0 -60 -3 -60 -7z m50 -274 c0 -29 -2
-31 -27 -24 -39 9 -41 14 -14 36 32 26 41 24 41 -12z m69 15 l24 -17 -24 -13
c-35 -19 -39 -17 -39 16 0 34 6 37 39 14z m11 -109 c0 -31 -63 -45 -103 -23
-22 11 -22 12 8 24 42 18 95 18 95 -1z"/>
<path d="M1280 1686 c-6 -8 -10 -25 -8 -38 2 -19 9 -23 38 -23 30 0 36 4 38
24 6 40 -43 66 -68 37z"/>
<path d="M876 1674 c-29 -29 -12 -64 31 -64 19 0 43 25 43 44 0 10 -32 36 -45
36 -7 0 -21 -7 -29 -16z"/>
<path d="M1400 1650 c-15 -28 4 -60 35 -60 31 0 50 32 35 60 -6 12 -21 20 -35
20 -14 0 -29 -8 -35 -20z"/>
<path d="M750 1646 c-6 -8 -10 -25 -8 -38 2 -18 10 -24 35 -26 28 -3 33 1 39
23 11 45 -37 75 -66 41z"/>
<path d="M1530 1606 c-27 -33 18 -72 48 -42 13 13 14 20 6 34 -15 23 -38 26
-54 8z"/>
<path d="M634 1586 c-10 -26 4 -48 28 -44 17 2 23 10 23 28 0 18 -6 26 -23 28
-13 2 -25 -3 -28 -12z"/>
<path d="M1236 1575 c-17 -26 -42 -111 -50 -172 -5 -37 -4 -43 12 -43 15 0 21
12 29 58 16 83 38 132 61 132 10 0 56 -9 103 -21 147 -36 330 -134 437 -233
41 -37 44 -38 60 -22 16 16 15 19 -23 52 -151 132 -366 232 -567 263 -43 7
-49 6 -62 -14z"/>
<path d="M885 1575 c-180 -40 -384 -143 -510 -258 -47 -43 -49 -46 -33 -63 16
-17 20 -15 70 32 108 102 270 192 418 233 125 35 127 34 159 -91 13 -49 23
-72 35 -74 20 -3 20 13 1 94 -18 74 -50 142 -68 141 -6 0 -39 -7 -72 -14z"/>
<path d="M1079 1574 c-17 -21 0 -49 32 -49 27 0 37 28 19 50 -16 19 -34 19
-51 -1z"/>
<path d="M1635 1554 c-18 -19 -16 -33 7 -48 12 -7 21 -6 32 3 22 18 20 38 -3
51 -15 7 -24 6 -36 -6z"/>
<path d="M542 1538 c-16 -16 -15 -33 2 -47 22 -18 48 -2 44 28 -3 28 -27 38
-46 19z"/>
<path d="M1743 1493 c-18 -7 -16 -28 3 -43 12 -11 18 -10 31 3 13 13 14 19 3
31 -13 17 -17 18 -37 9z"/>
<path d="M1091 1476 c-16 -19 -6 -36 20 -36 15 0 20 6 17 22 -4 27 -21 33 -37
14z"/>
<path d="M440 1464 c-11 -12 -10 -18 3 -32 16 -15 18 -15 34 0 13 14 14 20 3
32 -7 9 -16 16 -20 16 -4 0 -13 -7 -20 -16z"/>
<path d="M1834 1415 c-7 -18 3 -35 21 -35 21 0 28 19 15 35 -16 19 -29 19 -36
0z"/>
<path d="M357 1404 c-16 -16 -7 -44 14 -44 15 0 20 5 17 22 -3 22 -19 33 -31
22z"/>
<path d="M1571 1381 c-32 -34 -51 -91 -51 -150 0 -45 -3 -47 -40 -26 -34 20
-91 18 -116 -3 -57 -45 -59 -124 -6 -185 14 -16 16 -14 33 23 28 63 94 67 125
8 19 -37 13 -91 -13 -121 -23 -25 -90 -56 -124 -57 -52 0 -128 30 -163 66 -31
31 -65 118 -52 131 2 3 25 -9 50 -27 l46 -31 0 106 c0 58 -4 105 -8 105 -5 0
-17 -9 -28 -21 -10 -11 -27 -25 -38 -31 -17 -9 -18 -7 -12 26 4 20 16 57 26
81 l19 45 -111 0 c-87 0 -108 -3 -101 -12 14 -17 53 -125 53 -144 0 -11 -13
-4 -42 21 l-43 36 -3 -38 c-1 -21 1 -68 5 -106 l8 -67 38 26 c20 15 40 24 43
21 11 -11 -6 -74 -29 -108 -43 -64 -146 -101 -224 -80 -54 15 -105 69 -106
114 -1 43 25 85 58 93 34 8 74 -19 82 -56 7 -39 17 -38 42 4 70 112 -37 233
-146 166 l-33 -20 0 38 c0 64 -20 115 -62 157 l-40 39 -15 -29 c-18 -33 -22
-132 -9 -184 8 -33 8 -33 -22 -26 -45 10 -107 -11 -136 -46 -44 -52 -33 -152
22 -202 19 -17 19 -17 15 8 -11 54 39 115 95 115 10 0 30 -13 45 -28 50 -52
27 -156 -44 -194 -70 -37 -200 -18 -251 39 -19 21 -57 101 -58 121 0 17 33 8
82 -24 24 -15 38 -20 38 -12 -1 35 -29 168 -40 188 l-12 22 -31 -30 c-32 -30
-77 -58 -77 -47 0 3 14 32 30 65 17 33 30 62 30 65 0 11 -83 4 -110 -10 l-29
-15 15 -43 c9 -23 15 -67 15 -98 -1 -45 4 -64 26 -95 51 -75 67 -131 69 -244
1 -58 2 -110 3 -116 1 -6 28 -34 61 -63 l60 -52 88 35 c100 40 255 79 387 98
121 17 517 17 620 0 114 -19 265 -58 336 -87 l61 -25 57 51 c31 27 58 60 61
72 3 12 2 47 -3 78 -13 78 12 196 54 264 28 43 33 60 34 125 1 41 7 87 13 102
10 24 9 29 -9 38 -23 13 -119 26 -119 16 0 -4 14 -34 31 -67 17 -34 28 -63 26
-66 -9 -8 -65 26 -86 53 l-21 26 -9 -25 c-13 -33 -31 -133 -31 -169 l0 -29 43
26 c53 30 67 31 67 5 0 -51 -67 -138 -123 -159 -48 -18 -148 -13 -184 9 -56
34 -85 118 -59 168 22 43 65 58 106 37 36 -19 62 -70 53 -106 -6 -22 -5 -23
12 -9 10 8 27 35 38 59 28 63 17 120 -30 161 -33 29 -40 31 -98 28 -62 -3 -63
-3 -54 20 22 58 1 212 -29 212 -7 0 -26 -13 -41 -29z m-433 -264 c4 -20 -25
-34 -40 -19 -15 15 -1 44 19 40 10 -2 19 -11 21 -21z m913 -94 c-8 -30 -31
-44 -31 -18 0 23 19 57 30 50 4 -3 5 -17 1 -32z m-1846 -13 c19 -36 9 -63 -12
-35 -12 18 -19 65 -8 65 2 0 12 -14 20 -30z m945 -206 l24 -36 -20 -35 c-11
-19 -24 -36 -28 -37 -5 0 -18 15 -29 35 -21 37 -21 37 -2 73 11 20 22 36 25
36 3 0 16 -16 30 -36z m200 1 c15 -17 5 -35 -20 -35 -22 0 -33 23 -17 39 15
15 22 14 37 -4z m251 -2 c82 -49 44 -143 -59 -143 -48 0 -96 21 -106 45 -3 9
-6 30 -6 46 0 58 106 90 171 52z m-836 -7 c68 -29 70 -95 3 -137 -65 -40 -168
-3 -168 61 0 33 16 55 55 75 38 19 66 19 110 1z m170 -11 c0 -13 -8 -21 -22
-23 -17 -3 -23 2 -23 16 0 10 3 22 7 26 13 13 38 1 38 -19z m853 -63 c3 -16
-2 -22 -17 -22 -26 0 -36 17 -20 36 16 19 33 13 37 -14z m-1290 -20 c3 -16 -2
-22 -17 -22 -24 0 -35 15 -27 36 9 23 40 13 44 -14z m840 -16 c-2 -13 -10 -21
-23 -21 -23 0 -33 34 -14 45 20 13 40 -1 37 -24z m-388 8 c11 -12 10 -18 -3
-32 -16 -15 -18 -15 -34 0 -13 14 -14 20 -3 32 7 9 16 16 20 16 4 0 13 -7 20
-16z m1003 -26 c5 -16 -2 -31 -21 -51 l-27 -29 -6 34 c-4 25 0 37 15 50 27 23
33 22 39 -4z m-1605 -62 c4 -42 -6 -45 -37 -12 -16 17 -20 30 -15 50 6 25 8
26 28 13 14 -9 22 -27 24 -51z m1422 29 c15 -18 6 -45 -15 -45 -18 0 -30 24
-21 45 7 19 20 19 36 0z m-1252 -39 c-2 -13 -10 -21 -23 -21 -23 0 -33 34 -14
45 20 13 40 -1 37 -24z"/>
<path d="M1093 1384 c-8 -21 13 -42 28 -27 13 13 5 43 -11 43 -6 0 -13 -7 -17
-16z"/>
<path d="M1915 1351 c-8 -15 3 -31 21 -31 9 0 14 7 12 17 -4 20 -24 28 -33 14z"/>
<path d="M277 1323 c-13 -12 -7 -23 13 -23 11 0 20 7 20 15 0 15 -21 21 -33 8z"/>
<path d="M905 529 c-138 -13 -314 -45 -379 -69 -100 -38 -97 -68 9 -94 278
-69 999 -51 1208 31 93 37 -1 84 -236 119 -127 18 -469 26 -602 13z"/>
</g>
</svg>
