<?xml version="1.0" standalone="no"?>
<!DOCTYPE svg PUBLIC "-//W3C//DTD SVG 20010904//EN"
 "http://www.w3.org/TR/2001/REC-SVG-20010904/DTD/svg10.dtd">
<svg version="1.0" xmlns="http://www.w3.org/2000/svg"
 width="500.000000pt" height="500.000000pt" viewBox="0 0 500.000000 500.000000"
 preserveAspectRatio="xMidYMid meet">

<g transform="translate(0.000000,500.000000) scale(0.100000,-0.100000)"
fill="#000000" stroke="none">
<path d="M0 2500 l0 -2500 2500 0 2500 0 0 2500 0 2500 -2500 0 -2500 0 0
-2500z m2510 2010 c0 -5 5 -10 11 -10 5 0 7 5 3 12 -5 7 -3 8 5 3 9 -5 11 -19
6 -41 -5 -28 -3 -33 10 -27 13 5 14 7 3 14 -9 6 -9 9 -1 9 23 0 37 -49 27 -91
-4 -16 -34 -23 -34 -7 0 4 -4 8 -10 8 -19 0 -10 -17 15 -28 14 -6 25 -15 24
-19 -1 -5 0 -10 1 -13 7 -20 7 -40 -1 -40 -6 0 -8 -4 -4 -9 3 -6 -3 -14 -12
-20 -16 -9 -16 -12 -3 -21 12 -9 11 -10 -6 -5 -18 5 -21 2 -17 -19 3 -13 0
-27 -6 -30 -8 -5 -8 -13 0 -28 8 -15 8 -22 -1 -28 -9 -5 -9 -9 -1 -14 6 -4 13
-1 15 6 8 24 15 63 13 68 -1 3 8 16 21 30 12 13 20 31 17 40 -3 9 4 25 14 34
19 18 21 17 44 -8 19 -20 26 -23 30 -12 3 8 14 13 24 11 10 -2 21 -4 24 -4 8
-1 5 -33 -5 -49 -4 -6 -4 -18 0 -24 6 -9 10 -5 14 12 4 18 13 25 30 25 27 0
41 -32 21 -45 -8 -5 -7 -11 5 -21 16 -12 17 -12 11 3 -3 10 1 24 10 33 14 15
17 14 34 -1 24 -22 24 -29 -3 -41 -21 -10 -21 -12 -5 -18 12 -5 22 -2 31 10 8
11 20 16 30 12 9 -4 19 -6 21 -6 3 -1 17 -13 30 -27 24 -26 24 -28 9 -46 -10
-11 -12 -18 -6 -18 7 0 12 5 12 11 0 6 7 8 16 5 22 -8 40 4 23 15 -11 7 -10 9
4 9 18 0 23 -15 8 -24 -11 -7 -9 -25 4 -46 8 -13 6 -13 -8 -2 -14 12 -19 11
-38 -7 l-23 -21 -31 30 c-17 16 -36 30 -42 30 -6 0 -16 7 -23 15 -7 8 -17 12
-22 9 -6 -4 -5 -10 3 -15 10 -6 10 -9 2 -9 -8 0 -12 -15 -11 -43 2 -41 4 -44
30 -44 15 0 36 -7 46 -16 10 -10 21 -14 24 -11 3 3 5 -2 5 -12 -1 -9 4 -19 11
-21 10 -4 14 8 11 33 -2 18 27 21 45 6 18 -16 18 -16 6 8 -7 14 -20 31 -29 38
-9 8 -11 11 -4 8 6 -4 13 0 16 6 3 9 8 10 18 3 8 -6 26 -10 42 -9 15 0 27 -3
27 -7 0 -5 8 -9 18 -10 10 0 12 -3 4 -6 -6 -2 -10 -8 -7 -13 3 -5 1 -20 -5
-34 -8 -21 -7 -26 6 -26 9 0 12 -5 8 -12 -5 -7 -9 -21 -9 -31 -1 -10 -7 -22
-14 -26 -7 -4 -11 -12 -10 -17 4 -21 -2 -33 -14 -28 -8 3 -19 -13 -31 -45 -16
-44 -16 -52 -2 -85 15 -35 14 -37 -9 -52 -14 -9 -25 -23 -25 -31 0 -8 -4 -12
-9 -9 -11 7 -23 -22 -15 -35 3 -5 -12 0 -33 12 -24 13 -30 15 -18 4 l20 -16
-20 -15 c-11 -9 -19 -20 -17 -26 2 -7 -3 -7 -12 1 -8 7 -20 10 -26 6 -6 -3
-65 -13 -133 -20 -134 -15 -378 -13 -471 4 -32 6 -61 10 -65 9 -16 -4 -94 27
-98 39 -3 7 -14 13 -24 13 -11 0 -23 8 -26 18 -4 9 -18 26 -31 36 -18 15 -22
25 -17 45 11 48 12 66 2 94 -5 15 -13 27 -19 27 -6 0 -8 7 -4 15 3 8 -4 24
-17 35 -18 18 -22 33 -24 94 -2 69 0 74 23 85 14 6 39 11 56 11 29 0 30 1 15
18 -20 21 -21 41 -6 62 9 13 10 12 5 -3 -3 -11 -2 -16 4 -12 19 12 32 -6 18
-23 -12 -15 -11 -16 4 -4 16 13 16 16 2 37 -14 22 -14 24 3 34 22 11 49 -1 39
-18 -8 -12 -4 -14 18 -5 13 5 11 9 -7 27 -13 12 -21 21 -19 20 2 -1 11 5 19
13 12 11 18 12 29 3 13 -10 18 -6 16 12 -1 4 7 14 17 23 17 15 20 16 34 1 9
-8 15 -21 13 -28 -1 -7 -1 -9 1 -4 3 4 9 5 14 1 13 -8 11 10 -2 23 -16 16 -4
43 20 43 17 0 36 -24 33 -42 -1 -4 5 -5 14 -1 11 4 12 9 5 16 -28 28 -1 73 31
56 16 -9 23 -7 35 10 8 12 18 21 24 21 17 0 49 -40 43 -55 -4 -8 -1 -15 5 -15
13 0 13 1 3 55 -6 34 -4 43 15 61 12 12 25 19 29 15 4 -3 4 -1 1 6 -4 6 -4 13
0 16 9 4 -16 -3 -34 -10 -7 -3 -13 2 -13 10 0 8 -7 17 -15 21 -8 3 -15 11 -14
18 0 10 2 10 6 1 10 -26 23 -12 23 25 0 20 4 33 8 27 4 -5 16 -17 26 -25 19
-15 19 -14 3 17 -18 34 -10 48 19 36 12 -4 15 -3 10 5 -4 7 -2 12 3 12 6 0 11
-4 11 -10z m267 -256 c-3 -3 -12 -4 -19 -1 -8 3 -5 6 6 6 11 1 17 -2 13 -5z
m117 -203 c4 -5 -3 -7 -14 -4 -23 6 -26 13 -6 13 8 0 17 -4 20 -9z m140 -481
c-5 -5 -10 3 -11 18 -1 22 0 24 9 8 6 -10 6 -22 2 -26z m-1669 -450 c3 -6 -1
-7 -9 -4 -18 7 -21 14 -7 14 6 0 13 -4 16 -10z m482 -6 c-3 -3 -12 -4 -19 -1
-8 3 -5 6 6 6 11 1 17 -2 13 -5z m-653 -23 c80 1 149 -1 153 -4 3 -4 14 -2 25
4 11 6 22 9 24 6 3 -3 6 -77 7 -166 2 -127 -1 -162 -11 -166 -27 -10 -32 8
-32 126 0 88 -3 119 -12 119 -8 0 -9 3 -3 8 14 10 17 32 5 32 -5 0 -10 -6 -10
-12 0 -9 -3 -10 -8 -2 -4 6 -35 12 -69 13 l-63 2 -1 -123 c-1 -160 -2 -163
-16 -162 -40 3 -44 5 -37 16 5 8 2 9 -9 5 -10 -3 -17 -2 -17 3 0 6 6 10 13 10
10 0 14 25 16 106 2 85 0 104 -11 98 -10 -6 -9 -3 1 9 21 26 7 32 -70 32 -38
0 -70 3 -70 7 -5 28 -3 34 16 45 13 7 22 8 26 1 4 -5 65 -8 153 -7z m275 7
c11 -11 14 -10 18 0 4 9 8 10 18 2 9 -7 58 -10 138 -8 107 3 124 1 119 -12 -5
-13 -2 -13 14 1 42 35 76 16 162 -90 20 -24 39 -38 45 -34 7 3 9 3 5 -1 -7 -9
10 -33 65 -89 l38 -39 -1 134 -2 133 28 -2 c15 -1 35 3 43 10 10 7 10 4 -2
-10 -16 -19 -18 -38 -15 -175 l3 -153 -57 0 c-31 0 -60 3 -63 7 -4 4 5 5 21 2
l28 -5 -24 23 c-14 13 -33 34 -43 48 -10 14 -15 19 -11 11 5 -9 3 -12 -4 -7
-7 4 -12 13 -12 20 0 18 -45 58 -55 49 -4 -5 -5 -2 -1 5 9 15 -23 44 -38 34
-5 -3 -7 2 -3 11 3 10 2 17 -3 17 -5 0 -12 9 -15 21 -4 11 -12 18 -18 16 -8
-3 -12 -42 -12 -128 l0 -124 -192 -1 c-190 -1 -193 -1 -194 20 -1 11 -1 24 0
28 0 4 -7 5 -17 2 -14 -5 -15 -4 -2 5 12 8 15 35 15 133 0 68 -4 126 -9 129
-9 7 0 29 13 29 4 0 13 -6 20 -12z m764 5 c-7 -2 -19 -2 -25 0 -7 3 -2 5 12 5
14 0 19 -2 13 -5z m232 -29 c22 -10 45 -20 50 -23 6 -2 3 4 -5 15 -14 18 -14
18 2 5 10 -7 15 -17 12 -23 -7 -10 15 -40 25 -34 4 3 7 -5 7 -17 1 -82 5 -108
16 -101 7 4 8 3 4 -5 -4 -6 -12 -9 -17 -6 -5 4 -9 -5 -9 -18 0 -27 -31 -60
-81 -85 -44 -23 -296 -26 -291 -4 1 7 -2 22 -8 32 -8 14 -8 20 0 20 8 0 10 41
8 130 l-3 129 85 4 c128 4 161 1 205 -19z m335 0 c5 -13 14 -24 19 -24 6 0 8
-8 5 -17 -5 -15 -3 -15 10 1 18 22 21 14 6 -14 -8 -15 -6 -21 7 -29 10 -5 18
-13 17 -18 -3 -18 18 -63 27 -57 5 3 6 -1 4 -8 -3 -8 6 -29 20 -48 14 -19 25
-40 25 -47 0 -7 4 -13 9 -13 21 0 2 -34 -20 -35 -35 -3 -55 5 -37 16 10 7 11
9 0 9 -7 0 -11 4 -8 9 3 4 -2 15 -12 24 -21 18 -183 22 -194 4 -6 -9 -8 -8 -8
2 0 11 -3 11 -15 1 -8 -7 -15 -18 -15 -25 0 -16 -23 -35 -49 -40 -13 -2 -21 1
-21 10 0 7 -3 15 -7 18 -5 2 -2 2 5 1 12 -3 37 41 34 59 -1 4 3 7 9 7 6 0 8 7
5 16 -3 8 -2 13 3 10 5 -3 12 1 15 10 4 10 2 13 -7 9 -6 -4 -3 1 7 9 11 9 16
16 11 16 -5 0 -1 6 10 13 10 8 15 19 11 25 -4 7 -4 12 1 12 4 0 19 21 32 48
34 66 38 70 67 70 18 0 28 -8 34 -24z m580 6 c52 -14 86 -44 101 -88 6 -20 17
-40 23 -44 7 -5 7 -8 -3 -8 -9 0 -12 -9 -9 -30 3 -16 2 -30 -2 -30 -3 0 -12
-15 -18 -34 -9 -25 -25 -40 -60 -57 -42 -21 -62 -24 -184 -25 -124 -1 -155 4
-130 20 5 3 6 68 4 146 -2 78 -1 147 1 153 5 15 221 12 277 -3z m378 11 c75
-1 82 -3 82 -21 0 -18 -8 -20 -127 -22 -71 -2 -126 -7 -125 -12 2 -5 -2 -13
-10 -17 -10 -7 -10 -9 2 -9 13 0 13 -1 0 -10 -12 -8 -12 -10 5 -11 11 0 14 -3
8 -6 -7 -2 -13 -11 -13 -19 0 -11 20 -14 95 -13 56 0 93 4 90 10 -8 12 7 12
38 0 13 -5 27 -19 30 -30 5 -20 2 -21 -114 -21 -65 0 -122 0 -126 0 -10 1 -20
-59 -15 -82 4 -16 19 -18 137 -18 112 0 134 -2 139 -16 3 -9 3 -20 0 -25 -3
-6 -74 -9 -165 -7 -178 3 -164 -5 -160 82 1 23 -3 42 -11 48 -10 6 -10 10 -1
16 13 8 12 29 -1 50 -4 7 -4 18 1 25 5 7 9 32 8 57 0 25 3 47 6 50 4 3 38 4
76 3 37 -1 105 -2 151 -2z m-1101 -73 c-3 -8 -6 -5 -6 6 -1 11 2 17 5 13 3 -3
4 -12 1 -19z m-803 -78 c-5 -5 -10 3 -11 18 -1 22 0 24 9 8 6 -10 6 -22 2 -26z
m110 -86 c3 -8 2 -12 -4 -9 -6 3 -10 10 -10 16 0 14 7 11 14 -7z m1094 -39
c-3 -3 -9 2 -12 12 -6 14 -5 15 5 6 7 -7 10 -15 7 -18z m67 -244 c-5 -9 20
-21 53 -27 8 -1 17 -6 20 -10 4 -4 -1 -4 -11 -1 -10 4 -16 3 -13 -2 17 -26 76
-11 76 20 0 5 7 9 16 9 12 0 15 -6 10 -26 -4 -16 -3 -23 3 -19 7 4 8 -1 4 -11
-4 -12 -8 -14 -11 -6 -2 8 -8 9 -15 4 -28 -21 -62 -21 -96 1 -44 27 -79 29
-87 5 -3 -10 -14 -18 -24 -18 -32 0 -9 42 36 67 46 25 47 26 39 14z m-1595
-92 c-11 -8 -7 -10 20 -6 42 5 126 -16 123 -30 -1 -6 4 -17 12 -23 8 -7 15
-18 15 -25 0 -24 -31 -25 -63 -1 -18 13 -44 23 -59 22 -16 -1 -28 2 -28 6 0 9
-46 4 -72 -7 -20 -8 -25 -26 -5 -21 6 1 9 1 5 -1 -4 -2 -6 -10 -4 -16 1 -7 1
-9 -1 -4 -7 11 -23 9 -23 -4 0 -26 150 -60 175 -39 8 7 20 10 27 7 8 -4 7 -6
-4 -6 -10 -1 -18 -6 -18 -12 0 -5 4 -8 10 -4 5 3 19 0 32 -7 53 -30 75 -90 46
-127 -15 -19 -16 -26 -6 -33 9 -6 7 -8 -7 -4 -11 3 -38 -1 -60 -8 -25 -9 -60
-12 -95 -9 -30 3 -65 6 -77 5 -13 0 -21 4 -18 8 3 5 -4 11 -15 15 -11 3 -28
17 -38 30 -11 13 -21 22 -24 20 -2 -2 -4 5 -4 15 0 11 4 20 8 20 4 0 8 5 8 11
0 5 -5 7 -12 3 -6 -4 -8 -3 -5 4 4 5 17 8 29 4 16 -4 19 -2 13 8 -5 8 -4 11 3
7 5 -4 8 -15 5 -26 -3 -13 8 -26 41 -49 38 -24 57 -30 104 -31 41 0 53 3 42
10 -11 7 -9 8 10 4 36 -9 66 24 50 55 -8 15 -17 19 -32 14 -13 -4 -18 -2 -14
4 7 11 2 12 -71 15 -22 1 -39 5 -37 8 2 4 -14 9 -35 13 -59 9 -79 32 -84 94
-2 35 0 51 7 49 15 -6 48 12 41 23 -3 4 5 6 17 3 19 -4 20 -3 8 6 -12 9 -9 10
13 5 17 -4 27 -2 27 5 0 6 8 11 18 11 15 0 15 -2 2 -11z m477 5 c-3 -3 -12 -4
-19 -1 -8 3 -5 6 6 6 11 1 17 -2 13 -5z m283 -4 c0 -5 -2 -10 -4 -10 -3 0 -8
5 -11 10 -3 6 -1 10 4 10 6 0 11 -4 11 -10z m640 -15 c20 0 25 -5 25 -25 l0
-25 -133 3 c-116 3 -133 2 -138 -13 -4 -10 -1 -21 7 -26 8 -5 9 -9 4 -9 -21 0
-14 -38 8 -44 38 -10 197 -6 219 5 15 8 19 8 14 0 -4 -6 -3 -11 2 -11 5 0 9
-7 9 -15 0 -21 -23 -25 -152 -28 l-110 -2 0 -45 0 -45 135 -3 c133 -3 162 -11
140 -38 -6 -6 -7 -14 -3 -18 4 -4 -4 -3 -17 2 -14 5 -83 8 -155 7 -71 -1 -134
0 -140 2 -6 2 -9 59 -8 148 1 84 -2 147 -7 150 -12 7 -13 26 -2 24 4 -1 12 0
17 1 6 1 61 2 122 0 100 -2 114 0 120 16 5 14 8 15 12 3 3 -8 17 -14 31 -14z
m675 5 c39 -4 84 -14 100 -21 17 -7 34 -11 38 -10 5 1 6 -3 3 -8 -10 -16 15
-25 26 -10 8 11 9 10 4 -3 -3 -10 1 -30 9 -45 8 -15 15 -51 15 -79 0 -40 -7
-60 -31 -98 -22 -33 -36 -45 -48 -42 -14 5 -14 5 1 -7 14 -11 12 -13 -20 -14
-21 0 -73 -3 -117 -5 -51 -4 -82 -1 -87 5 -5 8 -15 7 -35 -1 -25 -11 -26 -11
-10 2 18 14 18 14 0 20 -10 4 -32 19 -48 34 -29 27 -39 56 -37 115 2 69 6 101
10 89 4 -13 68 47 64 61 -1 5 2 6 7 3 5 -3 24 0 41 8 18 7 29 15 24 18 -5 3
-2 3 6 1 8 -3 47 -8 85 -13z m404 5 c26 16 154 -51 148 -78 -5 -26 -67 -37
-67 -12 0 18 -46 39 -62 29 -7 -4 -8 -2 -4 4 9 15 -5 15 -64 1 -69 -16 -81
-51 -25 -75 42 -17 67 -19 45 -3 -12 9 -12 10 3 5 10 -3 23 -6 28 -6 6 0 7 -4
4 -10 -6 -9 22 -13 92 -14 12 0 20 -4 17 -7 -2 -4 4 -10 14 -13 10 -4 28 -28
40 -54 22 -48 29 -79 13 -54 -6 10 -16 4 -41 -24 -32 -36 -34 -37 -104 -37
-89 0 -135 6 -129 16 4 6 -29 11 -66 10 -9 -1 -10 2 -3 9 8 8 5 20 -10 41 -20
27 -20 31 -5 42 9 7 16 14 14 17 -1 2 9 -8 23 -22 36 -38 77 -63 91 -54 8 4 9
3 5 -4 -5 -8 1 -12 14 -12 14 0 19 4 14 13 -6 9 -4 9 7 1 35 -27 129 4 129 42
0 22 -59 46 -124 51 -34 2 -68 7 -76 10 -8 4 -21 5 -29 4 -7 -1 -10 2 -7 7 9
15 -26 24 -36 10 -6 -8 -7 -4 -3 11 4 14 3 21 -3 18 -14 -9 -3 64 13 90 9 12
34 27 57 34 24 6 50 14 58 19 8 4 17 4 18 -1 2 -5 7 -7 11 -4z m-1397 -30 c14
-20 -2 -206 -22 -244 -16 -33 -62 -67 -82 -63 -5 1 -8 -2 -8 -7 0 -12 -119 -6
-153 8 -35 14 -40 14 -32 1 3 -5 1 -10 -5 -10 -6 0 -10 8 -8 17 2 10 -3 18
-12 18 -8 0 -15 7 -15 15 0 8 -6 25 -13 37 -15 27 -13 245 3 250 27 8 35 -17
39 -120 4 -82 9 -113 23 -131 17 -24 51 -46 38 -26 -3 6 1 7 9 4 9 -3 14 -9
12 -13 -2 -3 18 -6 45 -7 27 0 49 4 49 9 0 4 4 5 10 2 6 -3 7 1 4 9 -3 9 -1
16 5 16 6 0 11 -6 11 -12 1 -7 12 1 25 17 23 27 25 39 25 132 0 119 5 139 29
121 9 -7 19 -17 23 -23z m1085 29 c-3 -3 -12 -4 -19 -1 -8 3 -5 6 6 6 11 1 17
-2 13 -5z m-2772 -65 c16 -31 40 -72 52 -92 12 -21 23 -41 24 -45 2 -15 34
-62 42 -62 4 0 5 -5 1 -12 -4 -7 -3 -8 4 -4 8 5 9 13 3 25 -7 13 -6 18 4 18 8
0 12 -4 9 -9 -3 -4 -3 -8 0 -8 11 0 65 118 58 125 -4 5 -2 5 4 2 14 -8 27 20
14 28 -6 4 -10 12 -9 18 0 9 2 9 6 0 6 -17 23 -16 23 1 0 7 6 19 14 26 8 6 13
17 10 24 -7 18 14 24 54 19 30 -5 32 -8 33 -47 0 -37 0 -225 -1 -270 0 -12 -5
-16 -15 -12 -8 3 -15 1 -15 -5 0 -6 -6 -5 -13 3 -9 9 -12 46 -10 137 2 69 2
123 0 120 -16 -20 -57 -100 -49 -95 6 3 -12 -26 -38 -66 -33 -49 -46 -76 -39
-84 6 -8 5 -14 -5 -17 -9 -4 -18 -2 -22 4 -3 6 -11 8 -18 6 -20 -8 -51 10 -51
29 0 21 -56 124 -67 124 -4 0 -5 -8 -2 -17 5 -15 4 -15 -4 -3 -8 10 -8 18 -1
27 8 9 4 19 -16 37 -15 14 -24 29 -21 35 4 5 3 12 -2 15 -5 3 -9 -17 -11 -45
-1 -30 2 -49 9 -49 7 0 8 -5 3 -12 -4 -7 -8 -42 -8 -77 0 -60 -2 -64 -22 -66
-13 -1 -23 4 -23 12 0 7 -6 13 -12 13 -9 0 -10 3 -2 8 14 9 17 218 3 243 -16
31 5 58 43 55 28 -2 37 -10 63 -57z m418 34 c3 -16 4 -91 3 -168 -1 -147 0
-143 -43 -136 -14 2 -4 314 10 323 20 13 25 9 30 -19z m825 -10 c31 -25 42
-29 53 -20 8 7 3 0 -10 -15 -13 -15 -20 -32 -16 -38 9 -15 -43 18 -68 43 -15
15 -21 16 -35 5 -9 -7 -13 -8 -9 -2 11 18 -39 26 -83 13 -40 -12 -53 -28 -44
-54 5 -13 18 -19 27 -13 1 1 11 -3 22 -9 11 -6 44 -14 73 -17 93 -10 146 -43
154 -94 4 -26 -1 -39 -22 -62 -15 -16 -25 -31 -23 -34 3 -3 -3 -5 -13 -4 -11
0 -56 -2 -102 -5 -52 -3 -80 -2 -76 5 3 5 -1 8 -9 6 -24 -5 -95 45 -102 70 -4
15 -11 22 -20 18 -9 -3 -12 0 -8 9 3 8 9 12 14 9 6 -3 16 0 24 6 12 10 16 9
21 -3 3 -9 12 -13 20 -10 10 4 12 0 8 -11 -6 -16 10 -23 19 -8 2 4 2 1 1 -5
-4 -15 26 -32 44 -26 6 3 12 0 12 -5 0 -11 92 -9 127 3 40 13 42 72 2 62 -10
-3 -17 0 -16 6 1 6 -6 13 -17 15 -10 2 -16 0 -12 -6 3 -5 0 -12 -8 -15 -9 -4
-12 0 -9 13 4 16 -4 19 -71 25 -42 4 -73 11 -70 16 5 8 -9 13 -28 10 -4 0 -11
11 -14 27 -4 15 -11 29 -15 32 -5 3 2 22 16 42 13 19 21 39 17 43 -4 5 -1 5 5
1 7 -4 21 -2 30 4 10 6 52 9 95 8 68 -3 80 -6 116 -35z m878 26 c4 -8 9 -7 16
2 7 11 9 11 7 -1 -3 -29 1 -41 11 -35 6 3 10 1 10 -6 0 -8 5 -7 18 2 15 13 16
12 3 -3 -14 -19 -15 -17 29 -70 19 -23 37 -24 19 0 -13 15 -12 16 3 3 10 -7
15 -17 12 -22 -3 -5 6 -20 19 -33 14 -14 23 -26 21 -29 -2 -2 11 -18 30 -36
l33 -32 -1 134 -1 134 25 -2 25 -1 5 -134 c3 -74 9 -141 13 -147 5 -7 4 -13
-1 -13 -5 0 -12 -9 -15 -21 -4 -16 -10 -19 -28 -14 -16 5 -20 4 -15 -6 4 -8
-15 10 -43 40 -28 30 -51 51 -52 45 0 -5 -4 1 -9 14 -6 14 -17 22 -27 20 -13
-2 -17 3 -15 16 2 10 -1 15 -7 11 -7 -4 -8 0 -4 11 5 13 2 15 -18 10 -13 -3
-18 -3 -11 0 18 8 15 27 -4 20 -8 -3 -12 -2 -9 4 3 6 -9 26 -27 45 l-33 35 1
-139 c0 -138 0 -140 -20 -129 -12 6 -23 11 -24 10 -2 -1 -4 70 -5 158 -2 152
-1 159 18 163 37 8 44 7 51 -4z m-826 -23 c0 -3 -4 -8 -10 -11 -5 -3 -10 -1
-10 4 0 6 5 11 10 11 6 0 10 -2 10 -4z m1627 -2 c-3 -3 -12 -4 -19 -1 -8 3 -5
6 6 6 11 1 17 -2 13 -5z m201 -53 c11 -6 10 -10 -4 -15 -9 -3 -19 -4 -22 -1
-3 3 1 5 9 5 11 0 11 2 -1 10 -8 5 -10 10 -5 10 6 0 16 -4 23 -9z m-1810 -26
c-3 -3 -9 2 -12 12 -6 14 -5 15 5 6 7 -7 10 -15 7 -18z m677 -5 c3 -5 1 -10
-4 -10 -6 0 -11 5 -11 10 0 6 2 10 4 10 3 0 8 -4 11 -10z m-1041 -66 c3 -8 2
-12 -4 -9 -6 3 -10 10 -10 16 0 14 7 11 14 -7z m753 -36 c-3 -8 -6 -5 -6 6 -1
11 2 17 5 13 3 -3 4 -12 1 -19z m638 -17 c-6 -5 -25 10 -25 20 0 5 6 4 14 -3
8 -7 12 -15 11 -17z m835 9 c0 -5 -7 -7 -15 -4 -8 4 -15 8 -15 10 0 2 7 4 15
4 8 0 15 -4 15 -10z m-185 -18 c-3 -3 -11 0 -18 7 -9 10 -8 11 6 5 10 -3 15
-9 12 -12z m-2750 -12 c3 -5 1 -10 -4 -10 -6 0 -11 5 -11 10 0 6 2 10 4 10 3
0 8 -4 11 -10z m372 -26 c-3 -3 -12 -4 -19 -1 -8 3 -5 6 6 6 11 1 17 -2 13 -5z
m714 -11 c0 -5 2 -18 3 -30 2 -19 0 -21 -12 -11 -10 9 -11 13 -3 16 9 3 9 7 0
18 -8 10 -8 14 0 14 6 0 11 -3 12 -7z m990 -30 l24 -28 -26 23 c-14 12 -29 19
-34 15 -4 -5 -5 -2 -1 5 9 16 9 16 37 -15z m-1481 14 c0 -2 -10 -12 -22 -23
l-23 -19 19 23 c18 21 26 27 26 19z m-330 -31 c-7 -7 -13 -7 -20 0 -6 6 -3 10
10 10 13 0 16 -4 10 -10z m98 -578 c-2 -7 6 -13 17 -14 48 -2 53 -5 50 -21 -1
-10 -9 -16 -16 -15 -15 4 -55 5 -78 3 -27 -2 9 -28 49 -35 86 -14 66 -96 -23
-96 -45 0 -77 15 -77 35 0 18 4 18 47 3 29 -10 36 -10 43 2 8 13 10 13 10 1 0
-12 3 -12 12 -3 10 10 10 15 -2 22 -21 13 -43 12 -34 -1 3 -6 -5 -3 -20 6 -14
10 -26 14 -26 9 0 -4 -6 1 -14 11 -7 10 -11 28 -8 39 5 23 42 63 42 46 0 -5 4
-10 10 -10 5 0 7 7 4 15 -4 8 -1 15 5 15 6 0 10 -6 9 -12z m596 -4 c3 -8 11
-12 17 -8 8 4 9 3 5 -5 -6 -9 -11 -9 -21 -1 -9 7 -15 8 -19 1 -4 -6 3 -15 14
-21 13 -7 19 -18 16 -26 -3 -8 -2 -14 2 -14 4 0 8 -9 8 -20 0 -11 -3 -20 -7
-20 -3 0 -11 -11 -17 -25 -7 -14 -20 -25 -31 -25 -11 0 -23 -5 -26 -10 -7 -11
-31 -6 -80 16 -22 10 -31 22 -33 41 -1 14 -7 32 -13 39 -9 11 -7 15 5 20 10 4
15 13 12 21 -3 8 -2 11 3 8 5 -3 12 -1 16 5 3 5 18 10 33 10 22 0 24 2 12 11
-12 9 -11 9 5 4 34 -13 80 -11 78 3 -4 18 14 15 21 -4z m106 -9 c5 3 14 -5 21
-17 7 -13 17 -26 23 -30 8 -5 7 -8 -1 -8 -7 0 -13 -5 -13 -11 0 -6 7 -8 16 -5
14 5 15 4 5 -8 -8 -10 -9 -16 -1 -21 8 -5 15 19 8 28 -6 7 46 84 57 84 8 0 12
-4 9 -9 -3 -4 0 -8 6 -8 7 0 9 -7 6 -16 -3 -8 -2 -13 3 -10 4 3 14 -7 21 -22
12 -24 14 -25 18 -7 2 11 8 24 13 30 13 13 11 28 -2 19 -8 -4 -8 0 0 15 7 11
17 21 24 20 9 0 9 -2 0 -6 -7 -2 -13 -9 -13 -14 0 -4 7 -6 15 -3 8 4 16 1 16
-5 1 -6 2 -17 3 -23 1 -7 -4 -19 -11 -26 -7 -7 -13 -19 -13 -25 0 -7 5 -6 11
3 9 12 10 12 5 -3 -3 -10 -6 -21 -6 -23 0 -3 -4 -3 -9 0 -5 3 -12 -6 -16 -22
-10 -40 -25 -55 -41 -41 -8 6 -14 15 -14 19 0 4 -7 25 -16 45 -12 29 -18 35
-25 24 -5 -8 -6 -21 -4 -29 2 -8 0 -22 -5 -30 -5 -8 -10 -11 -10 -7 0 5 -7 1
-16 -8 -24 -23 -36 -7 -68 89 -28 84 -31 101 -15 73 6 -9 14 -15 19 -12z
m1259 3 c-9 -18 -8 -18 10 -8 12 6 25 9 29 6 4 -2 7 -38 5 -78 -1 -40 -3 -77
-3 -81 0 -5 -7 -7 -16 -5 -8 2 -14 7 -14 12 1 5 -4 13 -12 17 -10 7 -10 9 0 9
6 0 12 11 12 25 0 14 -4 25 -10 25 -5 0 -6 -7 -3 -17 4 -11 3 -14 -5 -9 -8 5
-12 -1 -12 -17 0 -42 -55 -51 -70 -12 -5 14 -14 25 -20 25 -6 0 -9 4 -5 9 3 5
1 13 -5 16 -8 5 -10 -6 -7 -32 3 -22 0 -43 -7 -49 -18 -16 -32 5 -31 46 4 116
4 120 25 120 18 0 47 -36 42 -52 -1 -5 1 -8 6 -9 4 0 19 -2 35 -4 30 -4 44 14
42 56 0 14 5 26 12 26 9 0 9 -5 2 -19z m-1649 -3 c12 0 16 -16 18 -74 2 -41
-1 -78 -6 -83 -5 -5 -23 -3 -42 5 -18 8 -28 17 -22 21 6 3 13 2 17 -4 11 -19
22 -10 18 14 -5 24 -31 30 -45 11 -5 -6 -8 -5 -8 3 0 6 -9 12 -21 12 -18 0
-20 -4 -14 -30 6 -29 5 -31 -27 -34 -7 -1 -16 -5 -19 -9 -3 -5 -6 5 -5 22 1
17 4 31 8 31 4 0 6 26 5 58 -2 45 1 57 13 57 10 0 16 -12 18 -33 3 -25 8 -32
20 -30 10 2 16 11 14 23 -2 16 -1 17 7 5 5 -8 8 -17 6 -21 -3 -3 6 -6 19 -6
18 0 23 4 19 15 -4 10 -2 13 5 8 9 -5 9 0 2 19 -12 31 -13 44 -2 30 4 -5 14
-10 22 -10z m725 5 c-9 -14 29 -12 43 2 10 10 15 10 22 -2 9 -13 10 -13 10 0
0 9 3 11 8 4 8 -12 43 -28 55 -26 4 1 5 -9 3 -22 -2 -14 1 -27 7 -30 7 -2 4
-5 -5 -5 -10 -1 -18 -6 -18 -12 0 -5 5 -7 12 -3 7 5 8 3 2 -7 -4 -8 -7 -24 -6
-36 2 -11 -1 -24 -7 -27 -13 -9 -41 22 -35 38 4 10 -6 14 -38 14 -29 1 -38 -2
-28 -8 9 -6 10 -10 3 -10 -6 0 -11 -9 -10 -20 1 -11 6 -20 11 -20 5 0 7 -3 3
-6 -3 -3 -12 -2 -19 2 -7 5 -17 9 -22 9 -5 0 -9 35 -9 77 2 72 7 98 19 98 3 0
2 -4 -1 -10z m321 -2 c-5 8 7 6 32 -7 43 -22 63 -60 55 -103 -3 -18 -18 -31
-51 -47 -44 -22 -47 -22 -83 -5 -24 10 -44 29 -54 51 -15 32 -15 36 1 61 10
15 18 30 16 34 -1 4 5 5 13 2 8 -4 15 -1 15 5 0 6 7 8 15 5 8 -4 15 -1 15 6 0
9 4 9 17 -1 13 -11 15 -11 9 -1z m317 -21 c30 -20 56 -69 39 -74 -6 -3 -10 -8
-8 -12 3 -3 -3 -17 -12 -29 -13 -16 -32 -24 -68 -28 -44 -6 -56 -3 -82 16 -17
13 -29 27 -26 32 3 5 0 15 -6 23 -8 10 -9 15 -2 15 6 0 9 9 7 20 -2 11 0 18 6
15 5 -4 9 -2 9 4 0 18 53 39 88 36 18 -2 43 -10 55 -18z m87 -27 c0 -5 -5 -10
-11 -10 -5 0 -7 5 -4 10 3 6 8 10 11 10 2 0 4 -4 4 -10z m-1520 -95 c0 -8 -4
-15 -10 -15 -5 0 -7 7 -4 15 4 8 8 15 10 15 2 0 4 -7 4 -15z m1787 -17 c-3 -8
-6 -5 -6 6 -1 11 2 17 5 13 3 -3 4 -12 1 -19z m-1193 -7 c4 -5 -3 -7 -14 -4
-23 6 -26 13 -6 13 8 0 17 -4 20 -9z m1036 -1 c0 -5 -2 -10 -4 -10 -3 0 -8 5
-11 10 -3 6 -1 10 4 10 6 0 11 -4 11 -10z m-1690 -20 c-8 -5 -19 -10 -25 -10
-5 0 -3 5 5 10 8 5 20 10 25 10 6 0 3 -5 -5 -10z m143 3 c-7 -2 -19 -2 -25 0
-7 3 -2 5 12 5 14 0 19 -2 13 -5z m1284 1 c-3 -3 -12 -4 -19 -1 -8 3 -5 6 6 6
11 1 17 -2 13 -5z m383 -18 c0 -3 -4 -8 -10 -11 -5 -3 -10 -1 -10 4 0 6 5 11
10 11 6 0 10 -2 10 -4z"/>
<path d="M2478 4284 c6 -3 10 -10 6 -15 -3 -5 0 -9 5 -9 6 0 11 6 11 13 0 9 3
8 9 -2 6 -9 11 -10 15 -2 4 6 4 11 -1 12 -4 0 -19 2 -33 4 -14 2 -19 1 -12 -1z"/>
<path d="M2337 4231 c-3 -13 -1 -18 9 -14 7 2 10 11 7 19 -7 19 -10 18 -16 -5z"/>
<path d="M2443 4228 c-11 -14 8 -74 20 -62 3 3 4 -7 3 -22 -5 -41 2 -56 19
-41 10 9 9 14 -3 23 -13 10 -14 15 -4 27 9 11 10 17 2 22 -6 4 -9 18 -8 32 3
29 -14 41 -29 21z"/>
<path d="M2335 4170 c-4 -6 -11 -7 -17 -4 -7 5 -9 2 -6 -7 4 -11 -2 -14 -21
-13 -28 1 -71 -15 -71 -26 0 -4 6 -13 14 -19 11 -9 15 -9 20 1 3 7 3 2 0 -11
-5 -20 -3 -23 11 -17 14 5 15 3 8 -6 -6 -7 -9 -27 -6 -44 5 -30 6 -31 34 -21
24 9 33 8 55 -9 15 -11 26 -22 24 -24 -2 -3 2 -14 8 -25 8 -17 6 -28 -10 -53
-23 -37 -34 -40 -43 -13 -7 24 -39 33 -61 16 -16 -11 -16 -14 3 -46 11 -19 25
-33 32 -31 6 1 11 -2 11 -6 0 -10 38 -14 68 -7 14 3 20 10 16 17 -4 7 -3 8 4
4 6 -4 21 3 34 16 15 15 18 23 9 26 -8 3 -7 9 6 19 12 10 9 10 -10 -2 -16 -9
-31 -14 -34 -11 -3 3 -6 28 -6 55 -1 27 -4 48 -8 45 -4 -2 -10 3 -13 12 -3 8
-2 13 3 10 16 -10 46 48 43 83 -3 26 -6 31 -13 20 -6 -9 -7 -4 -4 16 3 17 2
35 -2 41 -11 15 -71 26 -78 14z m18 -147 c-7 -2 -19 -2 -25 0 -7 3 -2 5 12 5
14 0 19 -2 13 -5z"/>
<path d="M2593 4163 c-4 -9 1 -21 9 -27 14 -10 14 -13 0 -26 -14 -13 -15 -12
-9 5 7 20 7 20 -8 1 -8 -11 -16 -27 -17 -35 -2 -26 -4 -35 -16 -64 -18 -42
-15 -45 13 -13 l25 29 0 -28 c0 -23 2 -26 15 -15 13 11 14 10 9 -4 -3 -9 -9
-16 -13 -16 -10 0 -11 -72 -1 -90 6 -12 2 -15 -20 -15 -16 0 -32 4 -36 8 -5 4
0 5 11 1 16 -6 18 -5 8 7 -10 9 -16 10 -24 2 -17 -17 42 -76 66 -66 13 4 16 3
11 -5 -5 -8 4 -12 29 -12 27 0 44 8 67 30 30 31 35 65 8 65 -8 0 -18 4 -22 10
-11 16 -28 -8 -31 -42 l-2 -30 -22 24 c-13 13 -23 31 -23 39 0 8 -4 12 -10 9
-17 -11 1 59 21 80 13 14 31 19 59 19 25 -1 40 3 40 11 0 6 11 34 25 60 17 34
21 51 13 56 -14 9 -38 0 -38 -14 0 -6 -3 -7 -6 -4 -4 4 -1 13 6 22 11 13 10
14 -5 9 -13 -5 -16 -4 -11 4 7 11 -7 16 -41 15 -7 -1 -13 3 -13 7 0 15 -61 9
-67 -7z m147 -83 c0 -5 -2 -10 -4 -10 -3 0 -8 5 -11 10 -3 6 -1 10 4 10 6 0
11 -4 11 -10z"/>
<path d="M2144 4148 c-3 -4 2 -8 10 -8 8 0 17 4 20 8 3 5 -2 9 -10 9 -8 0 -17
-4 -20 -9z"/>
<path d="M2897 4126 c-16 -13 -15 -15 10 -31 l28 -18 -19 21 c-17 20 -15 27 7
23 4 0 7 4 7 9 0 14 -11 12 -33 -4z"/>
<path d="M2160 4088 c-14 -13 -27 -23 -30 -23 -3 0 -4 -4 -2 -8 1 -5 -3 -7
-10 -5 -14 5 -49 -22 -42 -33 2 -4 -6 -6 -18 -4 -31 6 -50 -8 -42 -29 4 -11
14 -16 25 -13 22 6 35 -8 18 -19 -8 -5 -9 -3 -4 6 5 8 4 11 -3 7 -12 -8 -4
-47 9 -47 5 0 9 5 9 11 0 28 57 60 96 53 16 -2 24 -1 19 3 -12 9 -13 92 -2
111 12 18 4 15 -23 -10z"/>
<path d="M2453 4073 c9 -2 23 -2 30 0 6 3 -1 5 -18 5 -16 0 -22 -2 -12 -5z"/>
<path d="M2420 4016 c0 -2 7 -9 15 -16 12 -10 15 -10 15 4 0 9 -7 16 -15 16
-8 0 -15 -2 -15 -4z"/>
<path d="M2495 3951 c-3 -5 -2 -12 3 -15 5 -3 9 1 9 9 0 17 -3 19 -12 6z"/>
<path d="M1953 3889 c-2 -23 3 -25 10 -4 4 8 3 16 -1 19 -4 3 -9 -4 -9 -15z"/>
<path d="M3033 3885 c0 -8 4 -12 9 -9 4 3 8 9 8 15 0 5 -4 9 -8 9 -5 0 -9 -7
-9 -15z"/>
<path d="M2148 3879 c-11 -6 -18 -22 -18 -38 0 -34 -26 -49 -35 -20 -8 23 -25
25 -25 3 0 -12 -6 -10 -21 10 -22 28 -52 36 -43 11 4 -8 10 -12 15 -9 5 3 6
-1 4 -9 -8 -18 28 -48 67 -56 44 -9 82 6 103 42 15 25 15 33 4 53 -13 26 -25
29 -51 13z m39 -51 c-3 -8 -6 -5 -6 6 -1 11 2 17 5 13 3 -3 4 -12 1 -19z"/>
<path d="M2804 3883 c4 -7 2 -13 -3 -13 -14 0 -14 -23 1 -55 6 -14 20 -25 30
-25 10 0 21 -6 24 -14 3 -7 17 -13 31 -13 25 0 26 0 8 13 -10 8 -15 14 -11 14
5 0 2 7 -5 16 -8 9 -12 27 -11 39 3 25 -28 59 -36 37 -3 -10 -7 -10 -20 0 -12
10 -14 10 -8 1z"/>
<path d="M2957 3843 c-14 -14 -19 -15 -26 -5 -6 10 -11 9 -22 -4 -8 -10 -9
-15 -3 -11 6 3 11 0 11 -7 0 -8 -6 -12 -14 -9 -9 3 -11 0 -7 -10 11 -29 35
-28 65 2 30 31 38 47 17 36 -7 -4 -4 1 6 9 15 12 16 16 5 16 -8 0 -23 -8 -32
-17z"/>
<path d="M2483 3758 c-10 -22 -9 -29 2 -38 8 -7 12 -16 9 -21 -13 -22 6 -6 21
17 10 15 12 23 4 19 -9 -6 -11 -3 -6 9 4 9 3 14 -2 11 -5 -3 -11 2 -13 12 -2
13 -6 11 -15 -9z"/>
<path d="M2371 3761 c-10 -7 -10 -10 -1 -16 6 -4 16 -3 22 3 13 13 -4 23 -21
13z"/>
<path d="M2605 3761 c-3 -6 -5 -11 -3 -12 27 -6 38 -5 35 4 -5 15 -24 20 -32
8z"/>
<path d="M2256 3751 c-5 -8 -3 -17 5 -22 8 -5 9 -9 3 -9 -6 0 -14 3 -18 7 -28
28 -57 -9 -30 -38 26 -29 98 -19 80 10 -4 6 0 11 8 11 9 0 16 3 16 6 0 12 -30
35 -39 30 -5 -4 -11 -1 -13 6 -3 9 -6 9 -12 -1z m-4 -48 c-6 -2 -9 -10 -6 -15
4 -7 2 -8 -5 -4 -13 9 -5 26 12 25 9 0 8 -2 -1 -6z"/>
<path d="M2711 3747 c-30 -15 -35 -28 -18 -51 19 -26 75 -27 93 -2 13 19 12
23 -11 44 -30 26 -32 26 -64 9z"/>
<path d="M2097 3724 c-9 -10 2 -24 18 -24 9 0 12 6 9 15 -6 16 -17 19 -27 9z"/>
<path d="M2877 3717 c-9 -23 8 -30 24 -10 8 9 9 14 2 10 -6 -4 -13 -2 -15 5
-3 8 -7 6 -11 -5z"/>
<path d="M2365 3690 c-3 -6 1 -13 10 -16 19 -8 30 0 20 15 -8 14 -22 14 -30 1z"/>
<path d="M2600 3686 c0 -9 7 -16 16 -16 9 0 14 5 12 12 -6 18 -28 21 -28 4z"/>
<path d="M2020 3654 c0 -8 5 -12 10 -9 6 4 8 11 5 16 -9 14 -15 11 -15 -7z"/>
<path d="M2965 3661 c-3 -5 -1 -12 5 -16 5 -3 10 1 10 9 0 18 -6 21 -15 7z"/>
<path d="M2124 3649 c-3 -6 -1 -16 5 -22 6 -6 11 -9 12 -6 0 2 2 12 4 22 4 19
-10 23 -21 6z"/>
<path d="M2855 3650 c-4 -6 -3 -16 3 -22 6 -6 12 -6 17 2 4 6 3 16 -3 22 -6 6
-12 6 -17 -2z"/>
<path d="M2368 3623 c23 -2 59 -2 80 0 20 2 1 4 -43 4 -44 0 -61 -2 -37 -4z"/>
<path d="M2528 3623 c6 -2 18 -2 25 0 6 3 1 5 -13 5 -14 0 -19 -2 -12 -5z"/>
<path d="M2593 3623 c9 -2 25 -2 35 0 9 3 1 5 -18 5 -19 0 -27 -2 -17 -5z"/>
<path d="M2665 3620 c3 -5 14 -10 23 -10 15 0 15 2 2 10 -20 13 -33 13 -25 0z"/>
<path d="M2253 3613 c9 -2 23 -2 30 0 6 3 -1 5 -18 5 -16 0 -22 -2 -12 -5z"/>
<path d="M2745 3610 c3 -5 11 -10 16 -10 6 0 7 5 4 10 -3 6 -11 10 -16 10 -6
0 -7 -4 -4 -10z"/>
<path d="M2208 3603 c7 -3 16 -2 19 1 4 3 -2 6 -13 5 -11 0 -14 -3 -6 -6z"/>
<path d="M2150 3591 c0 -5 9 -7 20 -4 11 3 20 7 20 9 0 2 -9 4 -20 4 -11 0
-20 -4 -20 -9z"/>
<path d="M2820 3596 c0 -2 9 -6 20 -9 11 -3 18 -1 14 4 -5 9 -34 13 -34 5z"/>
<path d="M1770 3060 c-8 -5 -70 -10 -137 -10 -112 0 -123 -2 -133 -20 -8 -15
-8 -20 2 -20 9 0 9 -3 -2 -10 -8 -5 -10 -10 -3 -10 6 0 9 -8 6 -19 -4 -17 3
-18 92 -19 60 -1 94 2 90 8 -8 13 7 13 39 0 16 -6 26 -17 26 -30 0 -19 -7 -20
-117 -21 -65 -1 -121 -1 -125 0 -5 0 -8 -22 -8 -49 l0 -50 133 0 c72 0 137 4
142 8 8 5 18 253 11 252 -1 0 -8 -5 -16 -10z"/>
<path d="M1770 2795 c0 -8 2 -15 4 -15 2 0 6 7 10 15 3 8 1 15 -4 15 -6 0 -10
-7 -10 -15z"/>
<path d="M2235 3043 c-6 -5 -10 -57 -10 -121 l0 -112 99 0 c81 0 104 4 131 20
36 22 57 75 50 128 -6 44 -11 51 -55 71 -40 18 -197 28 -215 14z"/>
<path d="M2749 3013 c-12 -14 -12 -16 1 -8 8 4 5 -2 -7 -14 -13 -12 -23 -28
-23 -36 0 -8 -9 -24 -20 -35 -11 -11 -20 -23 -20 -27 0 -5 37 -8 83 -8 l83 0
-23 25 c-13 14 -23 29 -23 35 0 5 5 3 10 -5 5 -8 10 -10 10 -4 0 6 -10 22 -23
36 -13 14 -21 30 -20 35 7 19 -14 23 -28 6z"/>
<path d="M3165 3044 c-6 -3 -9 -47 -8 -111 2 -60 3 -112 3 -116 0 -5 44 -6 98
-3 124 7 116 6 148 31 23 18 28 31 30 73 3 54 -16 91 -57 113 -30 16 -194 25
-185 10 4 -6 3 -11 -3 -11 -5 0 -11 4 -13 9 -1 4 -7 6 -13 5z m210 -32 c-3 -3
-11 0 -18 7 -9 10 -8 11 6 5 10 -3 15 -9 12 -12z m12 -44 c-3 -8 -6 -5 -6 6
-1 11 2 17 5 13 3 -3 4 -12 1 -19z m37 -83 c-4 -8 -11 -15 -16 -15 -6 0 -5 6
2 15 7 8 14 15 16 15 2 0 1 -7 -2 -15z"/>
<path d="M3549 2426 c-2 -3 -16 -7 -29 -9 -39 -8 -60 -18 -55 -27 3 -5 -3 -11
-13 -14 -31 -10 -42 -47 -30 -97 6 -24 16 -50 22 -58 29 -37 154 -63 184 -39
13 11 14 11 8 -1 -7 -10 -3 -12 15 -6 41 13 101 71 94 92 -2 6 1 13 7 15 16 6
-8 71 -35 95 -33 29 -91 53 -129 53 -19 0 -37 -2 -39 -4z m-71 -181 c-3 -3 -9
2 -12 12 -6 14 -5 15 5 6 7 -7 10 -15 7 -18z"/>
<path d="M2020 1498 c0 -4 -6 -8 -14 -8 -17 0 -29 -31 -21 -52 3 -8 17 -21 31
-29 53 -28 110 39 65 77 -21 19 -61 26 -61 12z m20 -48 c0 -5 -5 -10 -11 -10
-5 0 -7 5 -4 10 3 6 8 10 11 10 2 0 4 -4 4 -10z"/>
<path d="M2371 1485 c0 -5 6 -21 14 -35 8 -14 14 -20 14 -15 0 6 -6 21 -14 35
-8 14 -14 21 -14 15z"/>
<path d="M3412 1444 c9 -19 14 -21 25 -12 18 15 11 33 -14 34 -19 1 -20 -2
-11 -22z"/>
<path d="M2585 1483 c-8 -21 -8 -21 30 -21 19 0 39 6 46 14 13 16 15 15 -33
18 -25 2 -39 -2 -43 -11z"/>
<path d="M2863 1503 c-7 -3 -13 -12 -14 -21 0 -11 -2 -12 -6 -4 -7 19 -23 4
-23 -23 0 -30 37 -56 70 -50 36 7 44 20 34 56 -9 31 -37 50 -61 42z"/>
<path d="M3124 1499 c-44 -16 -52 -61 -17 -85 33 -21 64 -14 83 18 11 20 12
32 5 44 -15 23 -46 33 -71 23z"/>
</g>
</svg>
